<?xml version="1.0" encoding="UTF-8" standalone="no"?>
<svg
   xmlns:dc="http://purl.org/dc/elements/1.1/"
   xmlns:cc="http://creativecommons.org/ns#"
   xmlns:rdf="http://www.w3.org/1999/02/22-rdf-syntax-ns#"
   xmlns:svg="http://www.w3.org/2000/svg"
   xmlns="http://www.w3.org/2000/svg"
   xmlns:sodipodi="http://sodipodi.sourceforge.net/DTD/sodipodi-0.dtd"
   xmlns:inkscape="http://www.inkscape.org/namespaces/inkscape"
   enable-background="new 0 0 552.1 180.1"
   version="1.1"
   viewBox="0 0 752.00003 209.99999"
   xml:space="preserve"
   id="svg55"
   sodipodi:docname="osgeo-logo-bw.svg"
   width="752"
   height="210"
   inkscape:version="1.0.2 (e86c8708, 2021-01-15)"
   inkscape:export-filename="/Users/bennyistanto/Downloads/osgeo-logo-bw.png"
   inkscape:export-xdpi="96"
   inkscape:export-ydpi="96"><defs
     id="defs59" /><sodipodi:namedview
     pagecolor="#ffffff"
     bordercolor="#666666"
     borderopacity="1"
     objecttolerance="10"
     gridtolerance="10"
     guidetolerance="10"
     inkscape:pageopacity="0"
     inkscape:pageshadow="2"
     inkscape:window-width="1486"
     inkscape:window-height="1147"
     id="namedview57"
     showgrid="false"
     inkscape:zoom="1.7699468"
     inkscape:cx="277.40947"
     inkscape:cy="105"
     inkscape:window-x="0"
     inkscape:window-y="25"
     inkscape:window-maximized="0"
     inkscape:current-layer="svg55" /><title
     id="title23">Black OSGeo logotype </title><metadata
     id="metadata25"><rdf:RDF><cc:Work
         rdf:about=""><dc:format>image/svg+xml</dc:format><dc:type
           rdf:resource="http://purl.org/dc/dcmitype/StillImage" /><dc:title>Black OSGeo logotype </dc:title><dc:date>June 2017</dc:date><dc:creator><cc:Agent><dc:title>Pim Tebbens</dc:title></cc:Agent></dc:creator><dc:rights><cc:Agent><dc:title>Copyright OSGeo Foundation</dc:title></cc:Agent></dc:rights><dc:publisher><cc:Agent><dc:title>OSGeo Foundation</dc:title></cc:Agent></dc:publisher><dc:identifier>osgeo-logo-bw</dc:identifier><dc:subject><rdf:Bag><rdf:li>OSGeo</rdf:li><rdf:li>logo</rdf:li><rdf:li>logotype</rdf:li><rdf:li>compass</rdf:li></rdf:Bag></dc:subject><dc:description>Official OSGeo logotype in black color</dc:description><dc:contributor><cc:Agent><dc:title>OSGeo Marketing Committee</dc:title></cc:Agent></dc:contributor><cc:license
           rdf:resource="http://creativecommons.org/licenses/by-nc-nd/4.0/" /></cc:Work><cc:License
         rdf:about="http://creativecommons.org/licenses/by-nc-nd/4.0/"><cc:permits
           rdf:resource="http://creativecommons.org/ns#Reproduction" /><cc:permits
           rdf:resource="http://creativecommons.org/ns#Distribution" /><cc:requires
           rdf:resource="http://creativecommons.org/ns#Notice" /><cc:requires
           rdf:resource="http://creativecommons.org/ns#Attribution" /><cc:prohibits
           rdf:resource="http://creativecommons.org/ns#CommercialUse" /></cc:License></rdf:RDF></metadata><style
     type="text/css"
     id="style27">.st0{fill:#020203;}.st1{fill:none;}</style><path
     class="st0"
     d="m 218.7,131.7 c -5,-2.9 -9,-6.9 -11.9,-11.9 -2.9,-5 -4.4,-10.5 -4.4,-16.5 V 76.8 c 0,-6 1.5,-11.5 4.4,-16.5 2.9,-5 6.9,-9 11.9,-11.9 5,-2.9 10.5,-4.4 16.4,-4.4 5.9,0 11.4,1.5 16.4,4.4 5,2.9 9,6.9 11.9,11.9 2.9,5 4.4,10.5 4.4,16.5 v 26.5 c 0,6 -1.5,11.5 -4.4,16.5 -2.9,5 -6.9,9 -11.9,11.9 -5,2.9 -10.5,4.4 -16.4,4.4 -5.9,0 -11.4,-1.5 -16.4,-4.4 m 25.2,-12.6 c 2.7,-1.7 4.9,-3.9 6.5,-6.7 1.6,-2.8 2.4,-5.8 2.4,-9.1 V 76.8 c 0,-3.2 -0.8,-6.3 -2.4,-9.1 -1.6,-2.8 -3.8,-5.1 -6.5,-6.7 -2.7,-1.6 -5.6,-2.5 -8.8,-2.5 -3.1,0 -6.1,0.8 -8.8,2.5 -2.7,1.7 -4.9,3.9 -6.5,6.7 -1.6,2.8 -2.4,5.8 -2.4,9.1 v 26.5 c 0,3.2 0.8,6.3 2.4,9.1 1.6,2.8 3.8,5.1 6.5,6.7 2.7,1.7 5.6,2.5 8.8,2.5 3.1,-0.1 6.1,-0.9 8.8,-2.5"
     id="path29" /><path
     class="st0"
     d="m 291.8,133.8 c -4.3,-1.4 -8.3,-3.5 -12,-6 -0.4,-0.2 -0.7,-0.7 -0.9,-1.3 -0.2,-0.6 -0.1,-1.2 0.1,-1.7 l 4.3,-7.8 c 0.5,-1 1.3,-1.5 2.3,-1.5 0.7,0 1.3,0.2 1.9,0.5 6.2,3.9 11.9,5.8 17.3,5.8 4.4,0 7.8,-1.1 10.3,-3.2 2.5,-2.1 3.8,-4.9 3.8,-8.3 0,-2.2 -0.6,-4.1 -1.9,-5.7 -1.2,-1.5 -2.9,-2.8 -4.9,-3.9 -2.1,-1.1 -5.1,-2.4 -9,-4 l -3.6,-1.5 c -5.6,-2.4 -10.3,-5.5 -14.1,-9.2 -3.8,-3.7 -5.8,-9.2 -5.8,-16.4 0,-5.1 1.1,-9.5 3.4,-13.4 2.3,-3.9 5.4,-6.9 9.5,-9.1 4,-2.2 8.7,-3.2 14,-3.2 4.4,0 8.7,0.7 13,2.2 4.3,1.5 8.2,3.5 11.7,6 0.4,0.2 0.7,0.7 0.9,1.3 0.2,0.6 0.1,1.2 -0.1,1.7 l -4.1,7.8 c -0.5,1 -1.3,1.5 -2.4,1.5 -0.7,0 -1.3,-0.2 -1.9,-0.5 -3.2,-2.1 -6.3,-3.6 -9.2,-4.5 -2.9,-0.9 -5.5,-1.4 -7.8,-1.4 -3.7,0 -6.6,1 -8.8,3 -2.1,2 -3.2,4.6 -3.2,7.8 0,3.2 1.2,5.9 3.5,8 2.4,2.1 6.1,4.2 11.3,6.4 0.7,0.2 3.6,1.4 8.5,3.4 4.9,2 8.8,5 11.7,8.9 2.9,3.9 4.3,8.5 4.3,13.8 0,5.1 -1.2,9.7 -3.6,13.7 -2.4,4 -5.8,7.1 -10.2,9.4 -4.4,2.3 -9.4,3.4 -15.1,3.4 -4.5,0.2 -8.9,-0.6 -13.2,-2"
     id="path31" /><path
     class="st0"
     d="m 361.8,131.7 c -5,-2.9 -8.9,-6.9 -11.9,-11.9 -2.9,-5 -4.4,-10.5 -4.4,-16.5 V 76.8 c 0,-6 1.5,-11.5 4.4,-16.5 2.9,-5 6.9,-9 11.9,-11.9 5,-2.9 10.4,-4.4 16.4,-4.4 5.2,0 10,0.9 14.5,2.8 4.4,1.9 8.2,4.6 11.4,8.1 0.5,0.6 0.7,1.3 0.7,2.1 0,0.8 -0.3,1.7 -1,2.5 l -5.4,5.7 c -0.7,0.7 -1.3,1 -2,1 -0.8,0 -1.6,-0.4 -2.2,-1.1 -4.1,-4.4 -9.4,-6.6 -15.8,-6.6 -3.1,0 -6.1,0.8 -8.8,2.5 -2.7,1.7 -4.9,3.9 -6.5,6.7 -1.6,2.8 -2.4,5.8 -2.4,9.1 v 26.5 c 0,3.2 0.8,6.3 2.4,9.1 1.6,2.8 3.8,5.1 6.5,6.7 2.7,1.7 5.6,2.5 8.8,2.5 3.1,0 6.1,-0.8 8.8,-2.4 2.7,-1.6 4.9,-3.7 6.4,-6.5 1.6,-2.7 2.3,-5.7 2.3,-8.9 v -6.1 h -16.6 c -0.7,0 -1.4,-0.2 -1.9,-0.7 -0.5,-0.5 -0.7,-1.1 -0.7,-1.9 v -8.9 c 0,-0.7 0.2,-1.4 0.7,-1.9 0.5,-0.5 1.1,-0.7 1.9,-0.7 h 26.1 c 1.5,0 2.7,0.5 3.8,1.5 1,1 1.5,2.3 1.5,3.8 v 14.4 c 0,6 -1.5,11.5 -4.4,16.5 -2.9,5 -6.9,9 -11.9,11.9 -5,2.9 -10.4,4.4 -16.2,4.4 -6,0 -11.4,-1.5 -16.4,-4.4"
     id="path33" /><path
     class="st0"
     d="m 438,130.5 c -4.5,-2.6 -8.1,-6.3 -10.7,-10.8 -2.6,-4.5 -4,-9.5 -4,-14.9 V 91.4 c 0,-5.4 1.3,-10.4 4,-14.9 2.6,-4.5 6.2,-8.2 10.7,-10.8 4.5,-2.6 9.4,-4 14.8,-4 5.4,0 10.3,1.3 14.8,4 4.5,2.6 8.1,6.3 10.7,10.8 2.6,4.6 4,9.5 4,14.9 v 8.3 c 0,1.5 -0.5,2.7 -1.5,3.8 -1,1 -2.3,1.5 -3.8,1.5 h -38.7 v 0.6 c 0,4.1 1.4,7.5 4.3,10.4 2.9,2.9 6.3,4.3 10.3,4.3 h 19.6 c 0.7,0 1.4,0.3 1.9,0.8 0.5,0.5 0.7,1.1 0.7,1.9 v 9 c 0,0.7 -0.2,1.4 -0.7,1.9 -0.5,0.5 -1.1,0.7 -1.9,0.7 h -19.6 c -5.5,-0.1 -10.5,-1.5 -14.9,-4.1 m 29.3,-38.9 v -1.1 c 0,-4.1 -1.4,-7.5 -4.3,-10.4 -2.8,-2.9 -6.3,-4.3 -10.3,-4.3 -4,0 -7.5,1.4 -10.3,4.3 -2.8,2.9 -4.3,6.3 -4.3,10.4 v 1.1 z"
     id="path35" /><path
     class="st0"
     d="m 508,132.2 c -4.5,-2.6 -8.1,-6.1 -10.7,-10.6 -2.6,-4.5 -3.9,-9.3 -3.9,-14.5 V 90.7 c 0,-5.2 1.3,-10.1 3.9,-14.5 2.6,-4.5 6.2,-8 10.7,-10.6 4.5,-2.6 9.4,-3.9 14.8,-3.9 5.4,0 10.3,1.3 14.8,3.9 4.5,2.6 8.1,6.2 10.7,10.6 2.6,4.5 4,9.3 4,14.5 V 107 c 0,5.2 -1.3,10.1 -4,14.5 -2.6,4.5 -6.2,8 -10.7,10.6 -4.5,2.6 -9.4,3.9 -14.8,3.9 -5.4,0.1 -10.4,-1.2 -14.8,-3.8 m 25,-14.8 c 2.8,-2.9 4.3,-6.3 4.3,-10.4 V 90.7 c 0,-4.1 -1.4,-7.5 -4.3,-10.4 -2.8,-2.9 -6.3,-4.3 -10.3,-4.3 -4,0 -7.5,1.4 -10.3,4.3 -2.8,2.9 -4.3,6.3 -4.3,10.4 V 107 c 0,4.1 1.4,7.5 4.3,10.4 2.8,2.9 6.3,4.3 10.3,4.3 4.1,0 7.5,-1.5 10.3,-4.3"
     id="path37" /><path
     class="st0"
     d="M 85.5,36.2 V 0 L 74.2,19.8 C 43.4,26.7 20.1,53.2 18.1,85.6 H 36.2 C 38.4,59.3 59.3,38.4 85.5,36.2"
     id="path39" /><path
     class="st0"
     d="M 36.2,94.6 H 0 l 19.8,11.3 C 26.7,136.7 53.2,160 85.6,162 V 143.9 C 59.3,141.7 38.4,120.8 36.2,94.6"
     id="path41" /><path
     class="st0"
     d="m 143.9,85.5 h 36.3 L 160.4,74.2 C 153.5,43.4 127,20.1 94.6,18.1 v 18.1 c 26.2,2.2 47.1,23.1 49.3,49.3"
     id="path43" /><path
     class="st0"
     d="m 94.5,143.9 v 36.3 l 11.3,-19.8 c 30.8,-6.9 54.1,-33.4 56.1,-65.8 h -18.1 c -2.1,26.2 -23,47.1 -49.3,49.3"
     id="path45" /><path
     class="st0"
     d="M 95.6,84.5 62.2,62.2 84.5,95.6 117.9,117.9 Z M 90,93.9 c -2.2,0 -3.9,-1.8 -3.9,-3.9 0,-2.2 1.8,-3.9 3.9,-3.9 2.2,0 3.9,1.8 3.9,3.9 0,2.1 -1.7,3.9 -3.9,3.9"
     id="path47" /><polygon
     class="st1"
     points="95.6,84.5 62.2,62.2 84.5,95.6 117.9,117.9 "
     id="polygon49" /><polygon
     class="st0"
     points="84.3,103.1 90,137.3 95,107.5 81.6,98.5 72.6,85.1 42.8,90.1 77,95.7 62.2,117.9 "
     id="polygon51" /><polygon
     class="st0"
     points="95.7,77 90,42.8 85.1,72.6 98.5,81.6 107.5,95 137.3,90 103.1,84.4 117.9,62.2 "
     id="polygon53" /><text
     xml:space="preserve"
     style="font-style:normal;font-weight:normal;font-size:129.98900000000000432px;line-height:1.25;font-family:sans-serif;fill:#000000;fill-opacity:1;stroke:none;stroke-width:3.24971;"
     x="615.47778"
     y="136.90004"
     id="text141"><tspan
       sodipodi:role="line"
       id="tspan139"
       x="615.47778"
       y="136.90004"
       style="font-style:normal;font-variant:normal;font-weight:bold;font-stretch:normal;font-family:'Miriam Libre';-inkscape-font-specification:'Miriam Libre Bold';fill:#000000;fill-opacity:1;stroke-width:3.24971;">ID</tspan></text><circle
     style="fill:#000000;fill-opacity:1"
     id="path159"
     cx="589.05347"
     cy="90.411102"
     r="10" /><text
     xml:space="preserve"
     style="font-style:normal;font-weight:normal;font-size:55.37230000000000274px;line-height:1.25;font-family:sans-serif;fill:#000000;fill-opacity:1;stroke:none;stroke-width:1.29779;"
     x="197.76273"
     y="198.47021"
     id="text163"><tspan
       sodipodi:role="line"
       id="tspan161"
       x="197.76273"
       y="198.47021"
       style="font-style:normal;font-variant:normal;font-weight:normal;font-stretch:normal;font-size:55.37230000000000274px;font-family:'Miriam Libre';-inkscape-font-specification:'Miriam Libre';fill:#000000;fill-opacity:1;stroke-width:1.29779;">Local Chapter</tspan></text></svg>
