<?xml version="1.0" encoding="UTF-8" standalone="no"?>
<svg
   xmlns:dc="http://purl.org/dc/elements/1.1/"
   xmlns:cc="http://creativecommons.org/ns#"
   xmlns:rdf="http://www.w3.org/1999/02/22-rdf-syntax-ns#"
   xmlns:svg="http://www.w3.org/2000/svg"
   xmlns="http://www.w3.org/2000/svg"
   xmlns:sodipodi="http://sodipodi.sourceforge.net/DTD/sodipodi-0.dtd"
   xmlns:inkscape="http://www.inkscape.org/namespaces/inkscape"
   width="128.3px"
   height="128.3px"
   enable-background="new 0 0 128.3 128.3"
   version="1.1"
   viewBox="0 0 128.3 128.3"
   xml:space="preserve"
   id="svg22"
   sodipodi:docname="osgeo-emblem-bw.svg"
   inkscape:version="1.0.2 (e86c8708, 2021-01-15)"
   inkscape:export-filename="/Users/bennyistanto/Downloads/osgeo-emblem-bw.png"
   inkscape:export-xdpi="300"
   inkscape:export-ydpi="300"><defs
     id="defs26" /><sodipodi:namedview
     pagecolor="#ffffff"
     bordercolor="#666666"
     borderopacity="1"
     objecttolerance="10"
     gridtolerance="10"
     guidetolerance="10"
     inkscape:pageopacity="0"
     inkscape:pageshadow="2"
     inkscape:window-width="1920"
     inkscape:window-height="1147"
     id="namedview24"
     showgrid="false"
     inkscape:zoom="7.3187839"
     inkscape:cx="64.150002"
     inkscape:cy="64.150002"
     inkscape:window-x="0"
     inkscape:window-y="25"
     inkscape:window-maximized="0"
     inkscape:current-layer="g20"
     inkscape:document-rotation="0"
     showguides="true"
     inkscape:guide-bbox="true" /><title
     id="title2">OSGeo Foundation logomark</title><metadata
     id="metadata4"><rdf:RDF><cc:Work
         rdf:about=""><dc:format>image/svg+xml</dc:format><dc:type
           rdf:resource="http://purl.org/dc/dcmitype/StillImage" /><dc:title>OSGeo Foundation logomark</dc:title><dc:date>June 2017</dc:date><dc:creator><cc:Agent><dc:title>Pim Tebbens</dc:title></cc:Agent></dc:creator><dc:rights><cc:Agent><dc:title>Copyright OSGeo Foundation</dc:title></cc:Agent></dc:rights><dc:publisher><cc:Agent><dc:title>OSGeo Foundation</dc:title></cc:Agent></dc:publisher><dc:subject><rdf:Bag><rdf:li>OSGeo</rdf:li><rdf:li>logo</rdf:li><rdf:li>logomark</rdf:li><rdf:li>compass</rdf:li><rdf:li>emblem</rdf:li></rdf:Bag></dc:subject><dc:description>OSGeo Foundation official logomark</dc:description><dc:contributor><cc:Agent><dc:title>OSGeo Foundation Marketing Committee</dc:title></cc:Agent></dc:contributor><cc:license
           rdf:resource="http://creativecommons.org/licenses/by-nd/4.0/" /></cc:Work><cc:License
         rdf:about="http://creativecommons.org/licenses/by-nd/4.0/"><cc:permits
           rdf:resource="http://creativecommons.org/ns#Reproduction" /><cc:permits
           rdf:resource="http://creativecommons.org/ns#Distribution" /><cc:requires
           rdf:resource="http://creativecommons.org/ns#Notice" /><cc:requires
           rdf:resource="http://creativecommons.org/ns#Attribution" /></cc:License></rdf:RDF></metadata><g
     transform="translate(3,3)"
     id="g20"><g
       id="g1029"
       transform="matrix(0.67892328,0,0,0.67892328,73.875673,51.797725)"><path
         class="st0"
         d="m -23.31299,-40.093929 v -36.2 l -11.3,19.8 c -30.8,6.9 -54.1,33.4 -56.1,65.8 h 18.1 c 2.2,-26.3 23.1,-47.2 49.3,-49.4"
         id="path39"
         style="fill:#020203" /><path
         class="st0"
         d="m -72.61299,18.306071 h -36.2 l 19.8,11.3 c 6.9,30.8 33.4,54.1 65.8,56.1 v -18.1 c -26.3,-2.2 -47.2,-23.1 -49.4,-49.3"
         id="path41"
         style="fill:#020203" /><path
         class="st0"
         d="m 35.08701,9.206071 h 36.3 l -19.8,-11.3 c -6.9,-30.8 -33.4,-54.1 -65.8,-56.1 v 18.1 c 26.2,2.2 47.1,23.1 49.3,49.3"
         id="path43"
         style="fill:#020203" /><path
         class="st0"
         d="m -14.31299,67.606071 v 36.299999 l 11.3,-19.799999 c 30.8,-6.9 54.1,-33.4 56.1,-65.8 h -18.1 c -2.1,26.2 -23,47.1 -49.3,49.3"
         id="path45"
         style="fill:#020203" /><path
         class="st0"
         d="m -13.21299,8.206071 -33.4,-22.3 22.3,33.4 33.4,22.3 z m -5.6,9.4 c -2.2,0 -3.9,-1.8 -3.9,-3.9 0,-2.2 1.8,-3.9 3.9,-3.9 2.2,0 3.9,1.8 3.9,3.9 0,2.1 -1.7,3.9 -3.9,3.9"
         id="path47"
         style="fill:#020203" /><polygon
         class="st1"
         points="84.5,95.6 117.9,117.9 95.6,84.5 62.2,62.2 "
         id="polygon49"
         style="fill:none"
         transform="translate(-108.81299,-76.293929)" /><polygon
         class="st0"
         points="95,107.5 81.6,98.5 72.6,85.1 42.8,90.1 77,95.7 62.2,117.9 84.3,103.1 90,137.3 "
         id="polygon51"
         style="fill:#020203"
         transform="translate(-108.81299,-76.293929)" /><polygon
         class="st0"
         points="85.1,72.6 98.5,81.6 107.5,95 137.3,90 103.1,84.4 117.9,62.2 95.7,77 90,42.8 "
         id="polygon53"
         style="fill:#020203"
         transform="translate(-108.81299,-76.293929)" /></g></g></svg>
