<?xml version="1.0" encoding="UTF-8" standalone="no"?>
<svg
   xmlns:dc="http://purl.org/dc/elements/1.1/"
   xmlns:cc="http://creativecommons.org/ns#"
   xmlns:rdf="http://www.w3.org/1999/02/22-rdf-syntax-ns#"
   xmlns:svg="http://www.w3.org/2000/svg"
   xmlns="http://www.w3.org/2000/svg"
   xmlns:sodipodi="http://sodipodi.sourceforge.net/DTD/sodipodi-0.dtd"
   xmlns:inkscape="http://www.inkscape.org/namespaces/inkscape"
   version="1.1"
   id="svg867"
   xml:space="preserve"
   width="185.82668"
   height="185.81332"
   viewBox="0 0 185.82668 185.81332"
   sodipodi:docname="osgeoid-emblem-square.svg"
   inkscape:version="1.0.2 (e86c8708, 2021-01-15)"
   inkscape:export-filename="/Users/bennyistanto/Documents/GitHub/osgeoid/branding/logo/osgeoid-emblem-square.png"
   inkscape:export-xdpi="300.15067"
   inkscape:export-ydpi="300.15067"><metadata
     id="metadata873"><rdf:RDF><cc:Work
         rdf:about=""><dc:format>image/svg+xml</dc:format><dc:type
           rdf:resource="http://purl.org/dc/dcmitype/StillImage" /><dc:title></dc:title></cc:Work></rdf:RDF></metadata><defs
     id="defs871" /><sodipodi:namedview
     pagecolor="#ffffff"
     bordercolor="#666666"
     borderopacity="1"
     objecttolerance="10"
     gridtolerance="10"
     guidetolerance="10"
     inkscape:pageopacity="0"
     inkscape:pageshadow="2"
     inkscape:window-width="1362"
     inkscape:window-height="1020"
     id="namedview869"
     showgrid="false"
     inkscape:zoom="3.9555829"
     inkscape:cx="93.418952"
     inkscape:cy="92.401048"
     inkscape:window-x="513"
     inkscape:window-y="25"
     inkscape:window-maximized="0"
     inkscape:current-layer="g895" /><g
     id="g875"
     inkscape:groupmode="layer"
     inkscape:label="ink_ext_XXXXXX"
     transform="matrix(1.3333333,0,0,-1.3333333,0,185.81333)"><g
       id="g877"
       transform="scale(0.1)"><path
         d="M 1393.65,0 H 0 V 1393.64 H 1393.65 V 0"
         style="fill:#ffffff;fill-opacity:1;fill-rule:nonzero;stroke:none"
         id="path879" /><path
         d="m 666.215,1062.55 v 246.09 L 589.473,1174.32 C 380.449,1127.53 221.977,947.145 208.422,727.434 h 122.652 c 14.727,178.3 156.836,320.396 335.141,335.116"
         style="fill:#4dbe5e;fill-opacity:1;fill-rule:nonzero;stroke:none"
         id="path881" /><path
         d="M 331.066,666.242 H 85 L 219.32,589.504 C 266.109,380.48 446.496,222.012 666.207,208.449 V 331.121 C 487.906,345.852 345.793,487.941 331.066,666.242"
         style="fill:#13343a;fill-opacity:1;fill-rule:nonzero;stroke:none"
         id="path883" /><path
         d="m 1062.54,727.426 h 246.07 l -134.32,76.746 C 1127.51,1013.19 947.113,1171.67 727.406,1185.22 V 1062.55 C 905.711,1047.82 1047.82,905.727 1062.54,727.426"
         style="fill:#13343a;fill-opacity:1;fill-rule:nonzero;stroke:none"
         id="path885" /><path
         d="M 727.398,331.121 V 0 H 1393.65 V 666.242 H 1062.53 C 1047.81,487.941 905.699,345.852 727.398,331.121"
         style="fill:#4dbe5e;fill-opacity:1;fill-rule:nonzero;stroke:none"
         id="path887" /><path
         d="m 696.426,670.637 c -14.785,0 -26.762,11.976 -26.762,26.758 0,14.785 11.977,26.761 26.762,26.761 14.781,0 26.762,-11.976 26.762,-26.761 0,-14.782 -11.981,-26.758 -26.762,-26.758 M 734.664,734.699 507.543,886.098 658.949,658.984 886.09,507.559 734.664,734.699"
         style="fill:#13343a;fill-opacity:1;fill-rule:nonzero;stroke:none"
         id="path889" /><path
         d="M 658.949,658.984 607.902,735.551 375.605,696.828 607.902,658.125 507.551,507.578 658.098,607.93 696.797,375.641 735.523,607.93 658.949,658.984"
         style="fill:#4dbe5e;fill-opacity:1;fill-rule:nonzero;stroke:none"
         id="path891" /><path
         d="M 785.711,735.551 886.078,886.098 735.531,785.727 696.809,1018.04 658.086,785.727 734.652,734.691 785.711,658.125 1018,696.832 785.711,735.551"
         style="fill:#4dbe5e;fill-opacity:1;fill-rule:nonzero;stroke:none"
         id="path893" /><g
         id="g895"
         transform="scale(10)"><text
           transform="matrix(1,0,0,-1,92.5504,14.523)"
           style="font-variant:normal;font-weight:bold;font-size:28.0994px;font-family:'Miriam Libre';-inkscape-font-specification:MiriamLibre-Bold;writing-mode:lr-tb;fill:#ffffff;fill-opacity:1;fill-rule:nonzero;stroke:none"
           id="text899"><tspan
             x="0"
             y="0"
             sodipodi:role="line"
             id="tspan897">ID</tspan></text></g></g></g></svg>
